<?xml version="1.0" encoding="UTF-8"?>
<svg width="46px" height="46px" viewBox="0 0 46 46" version="1.1" xmlns="http://www.w3.org/2000/svg" xmlns:xlink="http://www.w3.org/1999/xlink">
    <title>编组 3</title>
    <defs>
        <rect id="path-1" x="0" y="0" width="46.0000037" height="46"></rect>
    </defs>
    <g id="页面-1" stroke="none" stroke-width="1" fill="none" fill-rule="evenodd">
        <g id="我的" transform="translate(-353.000000, -1329.000000)">
            <g id="编组-17备份" transform="translate(0.000000, 1302.000000)">
                <g id="宠物" transform="translate(353.000000, 27.000000)">
                    <mask id="mask-2" fill="white">
                        <use xlink:href="#path-1"></use>
                    </mask>
                    <g id="矩形"></g>
                    <path d="M28.0858079,17.9578554 C28.3486941,18.0656586 28.6202033,18.1479953 28.9003357,18.2048655 C29.1804654,18.2617355 29.4658967,18.2924651 29.7566295,18.2970542 C30.0473623,18.3016435 30.3399478,18.2800378 30.6343862,18.232237 C30.9288258,18.1844362 31.2216273,18.1110071 31.5127907,18.0119495 C31.7378993,17.935364 31.9601931,17.8440467 32.1796718,17.7379977 C32.3991493,17.6319485 32.614253,17.5119204 32.8249828,17.3779133 C33.0357127,17.2439075 33.2405711,17.096875 33.4395582,16.9368158 C33.6385452,16.7767573 33.8302451,16.6048094 34.0146578,16.420972 C34.1990718,16.2371346 34.3748909,16.042714 34.5421149,15.8377104 C34.7093364,15.632707 34.8667733,15.4185768 35.0144257,15.1953201 C35.1620818,14.9720639 35.2989037,14.7412671 35.4248913,14.5029298 C35.5508777,14.2645925 35.6651366,14.0204082 35.767668,13.7703767 C35.8701994,13.5203452 35.9602738,13.2662434 36.0378912,13.008071 C36.1155098,12.7498988 36.18012,12.4894901 36.2317217,12.2268448 C36.2833248,11.9642 36.3215521,11.7011848 36.3464036,11.4377991 C36.3712576,11.1744136 36.3825589,10.9125288 36.3803075,10.6521448 C36.3780548,10.3917612 36.3622691,10.1347285 36.3329505,9.88104681 C36.3036255,9.62736473 36.2609758,9.37883619 36.2050015,9.13546118 C36.1490272,8.89208616 36.0801224,8.65559358 35.9982871,8.42598343 C35.9164544,8.19637316 35.8222726,7.97527671 35.7157417,7.7626941 C35.5779538,7.48773485 35.4210075,7.22987521 35.2449029,6.98911517 C35.0687957,6.74835513 34.8756162,6.52754956 34.6653642,6.32669845 C34.4551149,6.12584743 34.230286,5.94733247 33.9908777,5.79115359 C33.7514707,5.63497475 33.5003229,5.50298388 33.2374342,5.39518097 C33.0702063,5.32660453 32.8992466,5.26827531 32.7245553,5.22019332 C32.5498613,5.17211131 32.3722758,5.13450805 32.1917986,5.10738355 C32.011324,5.08025906 31.8288292,5.06374394 31.6443142,5.05783817 C31.4597955,5.05193241 31.2741439,5.05666445 31.0873597,5.07203429 C30.9005779,5.08740414 30.7135617,5.11333778 30.5263111,5.14983521 C30.3390604,5.18633264 30.1524767,5.23321811 29.9665601,5.29049164 C29.7806485,5.34776518 29.5962991,5.41515098 29.4135117,5.49264903 C29.230723,5.57014711 29.0503774,5.65738425 28.872475,5.75436045 C28.6945738,5.8513367 28.5199732,5.95758504 28.348673,6.07310549 C28.1773703,6.18862595 28.0101935,6.3128622 27.8471427,6.44581427 C27.6840918,6.57876649 27.5259509,6.71979439 27.3727197,6.86889794 C27.2194886,7.01800149 27.0719047,7.17446258 26.9299678,7.33828123 C26.7880336,7.50210014 26.65243,7.67248797 26.5231572,7.84944473 C26.3938857,8.02640124 26.2715666,8.2090744 26.1561999,8.3974642 C26.0408345,8.58585452 25.9329792,8.77905426 25.832634,8.97706343 C25.7322876,9.17507273 25.6399342,9.37693818 25.5555741,9.58265976 C25.4712126,9.78838134 25.39525,9.99696847 25.3276862,10.2084211 C25.2601237,10.4198738 25.201284,10.6331735 25.151167,10.8483202 C25.1010526,11.0634676 25.059903,11.2794262 25.0277183,11.4961961 C24.9955337,11.7129661 24.9724691,11.9295035 24.9585247,12.1458081 C24.9445816,12.3621135 24.939827,12.5771446 24.9442609,12.7909012 C24.948691,13.0046585 24.9622878,13.216112 24.9850514,13.4252617 C25.0078163,13.6344128 25.0396368,13.840253 25.0805129,14.0427822 C25.1213903,14.2453115 25.1711272,14.443555 25.2297235,14.6375127 C25.2883198,14.831471 25.3554939,15.0202095 25.4312457,15.2037283 C25.5069987,15.3872464 25.5909634,15.5646613 25.6831397,15.7359728 C25.7753174,15.9072856 25.8752639,16.0716695 25.9829792,16.2291244 C26.0906946,16.3865801 26.2056608,16.536349 26.3278777,16.678431 C26.4500946,16.8205142 26.5789731,16.9542264 26.7145134,17.0795675 C26.8500537,17.2049091 26.9916027,17.3212763 27.1391605,17.4286689 C27.2867196,17.5360627 27.4395769,17.6339649 27.5977326,17.7223757 C27.7558882,17.8107864 27.91858,17.8892796 28.0858079,17.9578554 Z M20.847545,16.7928167 C20.5184853,17.2883435 20.1313276,17.7048159 19.6860718,18.0422338 C19.240815,18.3796517 18.7565426,18.6235534 18.2332546,18.7739389 C17.7099655,18.9243237 17.1700896,18.9747465 16.6136268,18.9252074 C16.0571654,18.8756677 15.5079668,18.7282898 14.9660308,18.4830736 C14.7407293,18.3811281 14.5195987,18.263277 14.3026389,18.1295203 C14.0856798,17.9957631 13.8745279,17.8471086 13.6691831,17.683557 C13.4638383,17.5200054 13.2658495,17.3427899 13.0752167,17.1519103 C12.8845833,16.9610313 12.7027437,16.7579275 12.5296981,16.5425989 C12.356652,16.3272709 12.1937045,16.1013424 12.0408557,15.8648134 C11.8880063,15.6282839 11.7464086,15.3829378 11.6160628,15.1287753 C11.4857158,14.8746128 11.3676033,14.6135501 11.2617254,14.3455872 C11.1558476,14.0776249 11.0630024,13.8047834 10.98319,13.5270626 C10.9194582,13.3052974 10.8643931,13.0816196 10.8179948,12.8560293 C10.7715973,12.6304383 10.7340896,12.4040208 10.7054717,12.1767769 C10.6768557,11.9495335 10.6572674,11.722558 10.6467065,11.4958504 C10.6361468,11.2691419 10.6346656,11.043793 10.6422629,10.8198035 C10.6498614,10.5958144 10.666502,10.3742633 10.692185,10.1551501 C10.7178678,9.93603674 10.7524695,9.72041653 10.7959899,9.50828945 C10.839511,9.29616262 10.8917414,9.08855025 10.9526811,8.88545233 C11.01362,8.68235453 11.082975,8.48474907 11.1607462,8.29263595 C11.2385175,8.10052321 11.3243302,7.91482792 11.4181842,7.73555008 C11.5120371,7.55627236 11.6134797,7.38427542 11.722512,7.21955926 C11.8315453,7.05484335 11.9476425,6.89820143 12.0708037,6.74963349 C12.1939647,6.60106558 12.3235973,6.46128701 12.4597015,6.33029778 C12.5958057,6.19930869 12.737726,6.07773972 12.8854621,5.96559086 C13.033199,5.85344201 13.1860399,5.75125336 13.3439848,5.65902492 C13.5019304,5.56679646 13.6642199,5.48497231 13.8308534,5.41355245 C13.9974867,5.34213259 14.1676616,5.28146091 14.341378,5.23153743 C14.864666,5.0811525 15.4045413,5.03072964 15.9610039,5.08026886 C16.5174654,5.12980809 17.0666647,5.27718611 17.6086018,5.52240292 C17.8339022,5.62434788 18.0550325,5.74219889 18.2719927,5.87595595 C18.4889519,6.00971304 18.7001038,6.15836743 18.9054486,6.32191913 C19.1107935,6.48547084 19.3087824,6.66268645 19.4994153,6.85356595 C19.6900483,7.04444542 19.8718876,7.24754936 20.0449332,7.46287779 C20.2179801,7.67820596 20.380928,7.90413458 20.5337771,8.14066364 C20.6866249,8.37719296 20.8282224,8.62253901 20.9585698,8.87670178 C21.0889172,9.13086418 21.2070299,9.39192683 21.3129078,9.65988973 C21.4187858,9.92785213 21.5116304,10.2006937 21.5914417,10.4784143 C21.6712542,10.7561351 21.7374323,11.0366405 21.7899757,11.3199305 C21.8425192,11.6032204 21.8810321,11.8871587 21.9055143,12.1717452 C21.9299953,12.4563318 21.9402609,12.7394206 21.9363113,13.0210116 C21.932363,13.3026019 21.9142288,13.5805709 21.8819087,13.8549186 C21.8495873,14.1292663 21.8033241,14.3979232 21.743119,14.6608894 C21.6829139,14.9238555 21.6092207,15.1791479 21.5220392,15.4267666 C21.4348589,15.6743852 21.3348479,15.9124633 21.2220061,16.1410009 C21.1091655,16.3695371 20.9843452,16.586809 20.847545,16.7928167 Z M34.258753,9.26982468 C34.6215652,10.470744 34.5334203,11.7285261 33.9943182,13.043171 C33.4552148,14.357815 32.6349127,15.3153581 31.5334121,15.9158 C30.5672702,16.4424562 29.660471,16.532024 28.8130143,16.1845033 C27.9655563,15.8369833 27.3827152,15.1365526 27.064491,14.0832112 C26.7016801,12.8822925 26.7898256,11.6245108 27.3289278,10.3098659 C27.8680286,8.99522181 28.68833,8.03767827 29.7898319,7.43723528 C30.7559737,6.91058045 31.662773,6.82101347 32.5102298,7.16853433 C33.357689,7.51605501 33.9405301,8.21648512 34.258753,9.26982468 Z M19.7493391,11.007807 C19.3337566,9.5617251 18.5967155,8.45566557 17.5382159,7.68962847 C16.6266091,7.0298985 15.7374608,6.82457015 14.8707711,7.07364343 C14.0040802,7.32271681 13.3596095,7.9687833 12.9373593,9.01184288 C12.4470688,10.2229779 12.4097143,11.5515865 12.8252958,12.9976687 C13.240878,14.4437518 13.9779184,15.5498113 15.0364169,16.3158471 C15.9480236,16.9755774 16.8371718,17.1809058 17.7038615,16.9318321 C18.5705525,16.6827591 19.2150231,16.0366925 19.6372735,14.9936323 C20.1275645,13.782497 20.1649197,12.4538886 19.7493391,11.007807 Z M37.5243658,26.28542 C37.7998202,26.4181607 38.0860948,26.5236118 38.3831897,26.6017735 C38.6802858,26.6799364 38.9841279,26.7297391 39.2947161,26.7511815 C39.6053055,26.7726239 39.9183802,26.7654102 40.2339402,26.7295404 C40.5494977,26.6936732 40.8632113,26.6296425 41.1750811,26.5374482 C41.388148,26.474464 41.5986631,26.3987851 41.8066266,26.3104114 C42.0145951,26.222039 42.2186748,26.1215392 42.4188655,26.0089121 C42.6190575,25.8962849 42.8140751,25.7722555 43.0039184,25.6368238 C43.1937617,25.5013922 43.377211,25.3554284 43.5542662,25.1989326 C43.7313215,25.0424355 43.9008469,24.8764125 44.0628422,24.7008637 C44.2248364,24.525315 44.3782572,24.3413672 44.5231048,24.1490205 C44.6679512,23.9566743 44.8032947,23.7571659 44.9291353,23.5504954 C45.054976,23.3438248 45.170505,23.1313202 45.2757223,22.9129817 C45.3667602,22.7240646 45.4495998,22.5317562 45.5242412,22.3360566 C45.5988813,22.1403569 45.6649622,21.9422091 45.7224839,21.741613 C45.7800095,21.5410171 45.8286973,21.3389394 45.8685473,21.1353798 C45.9083999,20.9318202 45.9392225,20.7277574 45.961015,20.5231913 C45.9828126,20.3186276 45.9954786,20.1145459 45.9990129,19.9109462 C46.0025472,19.7073477 45.9969308,19.505212 45.9821635,19.3045392 C45.9673988,19.1038665 45.9435561,18.9056233 45.9106354,18.7098098 C45.8777109,18.5139961 45.8358656,18.3215549 45.7850995,18.1324862 C45.7343385,17.9434174 45.6749014,17.7586313 45.6067882,17.5781279 C45.5386737,17.3976245 45.4622121,17.2222731 45.3774034,17.0520734 C45.2925973,16.8818751 45.1998511,16.7176478 45.0991647,16.5593916 C44.9984797,16.4011352 44.8903388,16.2496125 44.7747421,16.1048234 C44.6591492,15.960035 44.5366582,15.8226771 44.4072692,15.6927499 C44.2778801,15.5628233 44.1422152,15.4409527 44.0002746,15.3271382 C43.858339,15.2133237 43.7108126,15.108114 43.5576952,15.0115088 C43.4045727,14.9149037 43.2465978,14.827368 43.0837706,14.7489016 C42.8083175,14.6161619 42.5220429,14.5107105 42.2249468,14.4325475 C41.9278506,14.3543844 41.6240091,14.3045818 41.3134223,14.2831397 C41.0028341,14.2616974 40.68976,14.2689102 40.3742,14.3047781 C40.0586426,14.3406458 39.7449296,14.4046759 39.4330611,14.4968685 C39.2199929,14.5598535 39.0094765,14.6355328 38.8015118,14.7239063 C38.593547,14.8122805 38.3894693,14.9127808 38.1892786,15.0254072 C37.9890866,15.1380336 37.7940683,15.2620625 37.6042238,15.3974941 C37.4143779,15.5329256 37.2309274,15.67889 37.0538721,15.8353872 C36.8768143,15.9918833 36.7072883,16.157906 36.5452942,16.3334551 C36.3833001,16.5090056 36.2298792,16.6929538 36.0850316,16.8852999 C35.940184,17.0776461 35.8048392,17.2771544 35.6789973,17.483825 C35.5531566,17.6904956 35.4376289,17.9030002 35.3324141,18.1213388 C35.2413763,18.3102565 35.1585373,18.5025645 35.0838972,18.698263 C35.0092558,18.8939621 34.9431729,19.092109 34.8856487,19.2927037 C34.8281244,19.4932996 34.7794359,19.695378 34.7395833,19.8989389 C34.6997307,20.1024996 34.6689056,20.3065618 34.647108,20.5111255 C34.6253142,20.7156904 34.6126508,20.9197727 34.6091178,21.1233724 C34.605586,21.3269723 34.6112024,21.529108 34.6259672,21.7297795 C34.6407332,21.9304534 34.6645784,22.1286968 34.6975029,22.3245099 C34.7304261,22.5203229 34.7722683,22.7127641 34.8230293,22.9018335 C34.8737928,23.0909029 34.9332306,23.275689 35.0013425,23.4561917 C35.069457,23.6366944 35.1459173,23.8120456 35.2307234,23.9822452 C35.3155334,24.1524445 35.4082809,24.3166717 35.5089659,24.4749271 C35.6096523,24.633185 35.7177919,24.784707 35.8333848,24.9294933 C35.9489815,25.0742834 36.0714756,25.2116426 36.2008673,25.3415709 C36.3302563,25.4714979 36.4659193,25.5933685 36.6078561,25.7071827 C36.7497968,25.8209982 36.8973264,25.9262085 37.0504451,26.0228137 C37.203565,26.11942 37.3615386,26.2069555 37.5243658,26.28542 Z M11.4406845,23.6588683 C11.3623315,23.974501 11.2587567,24.2774684 11.1299603,24.5677704 C11.0011639,24.8580726 10.8489131,25.1317272 10.6732079,25.3887343 C10.4975021,25.6457402 10.300752,25.8825724 10.0829575,26.0992312 C9.86516377,26.3158899 9.62931359,26.5094029 9.37540701,26.6797703 C9.22531527,26.7804809 9.06985872,26.8724145 8.90903735,26.955571 C8.74821534,27.0387237 8.5828026,27.1127 8.41279913,27.1774999 C8.24279629,27.2423024 8.06902106,27.2976149 7.89147346,27.3434372 C7.71392636,27.3892596 7.53346185,27.4253715 7.35007991,27.451773 C7.16669861,27.478177 6.98128334,27.4947421 6.79383411,27.5014683 C6.60638424,27.5081984 6.41780289,27.5050576 6.22809008,27.492046 C6.0383779,27.4790369 5.84844741,27.4562197 5.65829862,27.4235942 C5.46815021,27.3909699 5.27869927,27.3486959 5.08994581,27.2967722 C4.90119273,27.2448484 4.71404614,27.1835253 4.52850603,27.1128028 C4.34296593,27.0420791 4.15992579,26.9622966 3.97938563,26.8734552 C3.7988456,26.7846139 3.62167488,26.6871412 3.44787346,26.5810371 C3.27407179,26.4749317 3.10447643,26.360706 2.93908739,26.2383601 C2.77369861,26.1160167 2.61331233,25.9861402 2.45792854,25.8487305 C2.30254476,25.7113234 2.15291181,25.5670457 2.00902968,25.4158973 C1.86514768,25.2647528 1.72770932,25.1074654 1.59671461,24.9440351 C1.46571996,24.7806047 1.34179973,24.6118186 1.22495391,24.4376767 C1.10810818,24.2635362 0.998899494,24.0848791 0.897327865,23.9017054 C0.795756236,23.7185327 0.702310788,23.531725 0.616991522,23.3412822 C0.531672306,23.1508407 0.454890122,22.9576817 0.386644969,22.7618054 C0.318399778,22.5659278 0.259020244,22.3682766 0.208506366,22.1688516 C0.157992492,21.9694267 0.116587498,21.7691884 0.0842913852,21.5681367 C0.0519952669,21.367085 0.0289635488,21.1661868 0.0151962309,20.9654422 C0.0014289134,20.7647 -0.0030077127,20.5650777 0.00188635263,20.3665753 C0.00678041864,20.168074 0.0209816096,19.9716493 0.0444899254,19.7773011 C0.0679982408,19.5829527 0.10070048,19.3916171 0.142596644,19.2032941 C0.184492819,19.0149711 0.235381169,18.8305674 0.295261695,18.650083 C0.355142233,18.4695997 0.423726604,18.2939043 0.501014808,18.1229968 C0.578303036,17.9520903 0.663922926,17.7867948 0.757874476,17.6271104 C0.851826115,17.4674272 0.953657018,17.3141239 1.06336718,17.1672005 C1.17307736,17.0202777 1.29013849,16.8804424 1.41455056,16.7476947 C1.5389628,16.6149476 1.6701269,16.489928 1.80804286,16.3726356 C1.94595877,16.255342 2.08996247,16.1463403 2.24005395,16.0456304 C2.39014569,15.9449219 2.54560243,15.8529895 2.70642418,15.7698332 C2.86724581,15.6866771 3.03265804,15.6126984 3.20266088,15.5478972 C3.37266397,15.4830965 3.54643919,15.4277849 3.72398654,15.3819626 C3.90153364,15.3361402 4.08199783,15.3000274 4.26537913,15.2736243 C4.44876082,15.2472225 4.63417659,15.2306574 4.82162647,15.223929 C5.00907634,15.2172012 5.19765736,15.2203421 5.38736954,15.2333517 C5.57708236,15.2463632 5.7670131,15.2691812 5.95716177,15.3018056 C6.14731056,15.3344296 6.33676137,15.3767035 6.52551419,15.4286273 C6.71426765,15.4805512 6.90141444,15.5418746 7.08695454,15.6125976 C7.27249452,15.6833211 7.45553446,15.7631034 7.63607437,15.8519442 C7.81661427,15.9407856 7.99378513,16.0382586 8.16758693,16.1443631 C8.3413886,16.2504677 8.51098376,16.3646923 8.67637242,16.4870369 C8.84176107,16.6093827 9.00214742,16.7392596 9.15753146,16.8766678 C9.3129155,17.0140753 9.46254845,17.1583525 9.60643032,17.3094996 C9.75031218,17.4606473 9.88775079,17.6179366 10.0187461,17.7813676 C10.1497409,17.9447986 10.2736611,18.1135843 10.3905068,18.2877249 C10.525549,18.4889843 10.6503403,18.6961847 10.7648805,18.9093259 C10.8794206,19.1224667 10.9829737,19.3401786 11.0755398,19.5624617 C11.1681047,19.7847447 11.2490878,20.0101699 11.3184892,20.2387372 C11.3878894,20.4673046 11.4452619,20.6975451 11.4906066,20.9294587 C11.5359507,21.1613723 11.5689752,21.3934692 11.5896801,21.6257496 C11.6103844,21.8580299 11.6186364,22.0890002 11.6144359,22.3186606 C11.6102355,22.5483211 11.5936092,22.7751953 11.564557,22.9992831 C11.5355053,23.2233708 11.4942145,23.4432326 11.4406845,23.6588683 Z M43.9339962,18.6294855 C44.23892,19.7651892 44.1106164,20.9156673 43.5490855,22.0809198 C42.9875546,23.2461723 42.1676435,24.0633689 41.0893524,24.5325095 C40.1127648,24.9574 39.201791,24.9661566 38.3564311,24.5587793 C37.5110674,24.1514017 36.9503044,23.4334205 36.6741421,22.4048358 C36.3692196,21.2691328 36.4975238,20.1186544 37.0590548,18.9534006 C37.6205857,17.7881469 38.4404954,16.9709506 39.518784,16.5018117 C40.4953717,16.0769207 41.4063474,16.0681639 42.2517111,16.4755415 C43.0970735,16.8829176 43.6578353,17.6008989 43.9339962,18.6294855 Z M8.79892332,19.355654 C8.07821321,18.2815467 7.15095409,17.5885442 6.01714596,17.2766464 C4.99027633,16.994167 4.08722222,17.1143562 3.30798363,17.637214 C2.52874426,18.1600723 2.07517883,18.9501555 1.94728733,20.0074634 C1.80607687,21.174879 2.09582697,22.295641 2.81653764,23.3697495 C3.53724801,24.4438551 4.464507,25.1368569 5.59831462,25.4487547 C6.62518476,25.7312356 7.52823951,25.6110466 8.30747887,25.0881876 C9.08671746,24.5653299 9.54028257,23.7752473 9.6681742,22.71794 C9.80938372,21.5505233 9.51963343,20.4297613 8.79892332,19.355654 Z M8.06275637,39.425389 C6.98193347,34.9474615 8.06276366,31.5505685 10.8420323,26.9184394 C13.2061063,22.9782991 18.2534269,19.8158435 23.6575757,19.8158435 C31.5321873,20.4334409 35.2379282,25.065569 37.3995813,28.7712696 C39.7148168,32.7402588 39.2524363,37.2635097 38.9436019,39.4251667 C36.7534423,42.9095363 34.0461717,42.1951774 30.4562742,41.2479167 C28.4783528,40.7260122 26.2324967,40.1333999 23.6575681,40.1333999 C21.0938347,40.1333999 18.8563263,40.740184 16.8710301,41.2785699 C13.2433383,42.2623585 10.457769,43.0177686 8.06275637,39.425389 Z M35.7440048,29.7370204 C32.8843177,24.8346899 28.8307287,22.1665911 23.5832378,21.7327241 C21.3248001,21.7457446 19.1519715,22.3519731 17.0647521,23.5514094 C15.0630258,24.7017165 13.5366283,26.1527637 12.4855596,27.904551 C11.12431,30.1733093 10.2516065,32.0990648 9.86744927,33.6818175 C9.48508078,35.2571948 9.47859913,36.9077783 9.8480043,38.633568 C10.5406034,39.5691709 11.3197056,40.077952 12.1853109,40.1599112 C12.9204946,40.2295207 14.3151821,39.9857904 16.3693733,39.4287202 C19.3488296,38.6207289 21.7782285,38.2167332 23.65757,38.2167332 C25.539936,38.2167332 27.9691736,38.6093829 30.9452829,39.3946821 C32.9687411,39.9286092 34.3323108,40.160736 35.035992,40.0910627 C35.8119443,40.014235 36.5010914,39.5598495 37.1034333,38.7279063 C37.5622539,35.0741749 37.1091111,32.0772129 35.7440048,29.7370204 Z" id="形状" fill="#FFFFFF" mask="url(#mask-2)"></path>
                </g>
            </g>
        </g>
    </g>
</svg>